<mxfile host="app.diagrams.net" modified="2021-02-08T12:50:14.338Z" agent="5.0 (X11)" etag="NoHcORyeC6to_Xe8dMPT" version="14.2.9" type="github">
  <diagram id="Ttx7kKPrDK5NMYbMuepp" name="Page-1">
    <mxGraphModel dx="658" dy="804" grid="1" gridSize="10" guides="1" tooltips="1" connect="1" arrows="1" fold="1" page="1" pageScale="1" pageWidth="827" pageHeight="1169" math="0" shadow="0">
      <root>
        <mxCell id="0" />
        <mxCell id="1" parent="0" />
        <mxCell id="sVUJ80jD6Z_l5lCB4W26-1" value="Juego movil" style="html=1;verticalAlign=top;labelBackgroundColor=none;fillColor=none;" vertex="1" parent="1">
          <mxGeometry x="125" width="420" height="570" as="geometry" />
        </mxCell>
        <mxCell id="sVUJ80jD6Z_l5lCB4W26-7" style="edgeStyle=orthogonalEdgeStyle;rounded=0;orthogonalLoop=1;jettySize=auto;html=1;exitX=0.5;exitY=0.5;exitDx=0;exitDy=0;exitPerimeter=0;fontColor=none;" edge="1" parent="1" source="sVUJ80jD6Z_l5lCB4W26-3" target="sVUJ80jD6Z_l5lCB4W26-6">
          <mxGeometry relative="1" as="geometry" />
        </mxCell>
        <mxCell id="sVUJ80jD6Z_l5lCB4W26-3" value="Jugador 1" style="shape=umlActor;verticalLabelPosition=bottom;verticalAlign=top;html=1;labelBackgroundColor=none;fillColor=none;fontColor=none;" vertex="1" parent="1">
          <mxGeometry x="50" y="70" width="30" height="60" as="geometry" />
        </mxCell>
        <mxCell id="sVUJ80jD6Z_l5lCB4W26-9" style="edgeStyle=orthogonalEdgeStyle;rounded=0;orthogonalLoop=1;jettySize=auto;html=1;exitX=0.5;exitY=0.5;exitDx=0;exitDy=0;exitPerimeter=0;fontColor=none;" edge="1" parent="1" source="sVUJ80jD6Z_l5lCB4W26-5" target="sVUJ80jD6Z_l5lCB4W26-8">
          <mxGeometry relative="1" as="geometry">
            <Array as="points">
              <mxPoint x="55" y="420" />
            </Array>
          </mxGeometry>
        </mxCell>
        <mxCell id="sVUJ80jD6Z_l5lCB4W26-5" value="Jugador 2" style="shape=umlActor;verticalLabelPosition=bottom;verticalAlign=top;html=1;labelBackgroundColor=none;fillColor=none;fontColor=none;" vertex="1" parent="1">
          <mxGeometry x="40" y="370" width="30" height="60" as="geometry" />
        </mxCell>
        <mxCell id="sVUJ80jD6Z_l5lCB4W26-6" value="Crea la partida" style="ellipse;whiteSpace=wrap;html=1;labelBackgroundColor=none;fillColor=none;fontColor=none;" vertex="1" parent="1">
          <mxGeometry x="190" y="40" width="140" height="70" as="geometry" />
        </mxCell>
        <mxCell id="sVUJ80jD6Z_l5lCB4W26-8" value="Se conecta a la partida" style="ellipse;whiteSpace=wrap;html=1;labelBackgroundColor=none;fillColor=none;fontColor=none;" vertex="1" parent="1">
          <mxGeometry x="180" y="390" width="140" height="70" as="geometry" />
        </mxCell>
        <mxCell id="sVUJ80jD6Z_l5lCB4W26-12" value="Termina la partida" style="ellipse;whiteSpace=wrap;html=1;labelBackgroundColor=none;fillColor=none;fontColor=none;" vertex="1" parent="1">
          <mxGeometry x="450" y="220" width="90" height="40" as="geometry" />
        </mxCell>
        <mxCell id="sVUJ80jD6Z_l5lCB4W26-13" value="Abandona la partida" style="ellipse;whiteSpace=wrap;html=1;labelBackgroundColor=none;fillColor=none;fontColor=none;" vertex="1" parent="1">
          <mxGeometry x="190" y="190" width="80" height="40" as="geometry" />
        </mxCell>
        <mxCell id="sVUJ80jD6Z_l5lCB4W26-14" value="Acierta el disparo" style="ellipse;whiteSpace=wrap;html=1;labelBackgroundColor=none;fillColor=none;fontColor=none;" vertex="1" parent="1">
          <mxGeometry x="440" y="360" width="90" height="40" as="geometry" />
        </mxCell>
        <mxCell id="sVUJ80jD6Z_l5lCB4W26-15" value="Extend" style="html=1;verticalAlign=bottom;endArrow=open;dashed=1;endSize=8;entryX=0.421;entryY=0.014;entryDx=0;entryDy=0;entryPerimeter=0;" edge="1" parent="1" source="sVUJ80jD6Z_l5lCB4W26-13" target="sVUJ80jD6Z_l5lCB4W26-8">
          <mxGeometry relative="1" as="geometry">
            <mxPoint x="319.9954953569585" y="369.99786951640783" as="sourcePoint" />
            <mxPoint x="222.36528374335094" y="255.2262161686482" as="targetPoint" />
          </mxGeometry>
        </mxCell>
        <mxCell id="sVUJ80jD6Z_l5lCB4W26-16" value="Extend" style="html=1;verticalAlign=bottom;endArrow=open;dashed=1;endSize=8;" edge="1" parent="1" source="sVUJ80jD6Z_l5lCB4W26-13" target="sVUJ80jD6Z_l5lCB4W26-6">
          <mxGeometry relative="1" as="geometry">
            <mxPoint x="241.14239095595508" y="279.9918417292138" as="sourcePoint" />
            <mxPoint x="248.94000000000005" y="400.98" as="targetPoint" />
          </mxGeometry>
        </mxCell>
        <mxCell id="sVUJ80jD6Z_l5lCB4W26-17" value="Pierde la conexion" style="ellipse;whiteSpace=wrap;html=1;labelBackgroundColor=none;fillColor=none;fontColor=none;" vertex="1" parent="1">
          <mxGeometry x="270" y="260" width="80" height="40" as="geometry" />
        </mxCell>
        <mxCell id="sVUJ80jD6Z_l5lCB4W26-18" value="Dispara" style="ellipse;whiteSpace=wrap;html=1;labelBackgroundColor=none;fillColor=none;fontColor=none;" vertex="1" parent="1">
          <mxGeometry x="370" y="290" width="80" height="40" as="geometry" />
        </mxCell>
        <mxCell id="sVUJ80jD6Z_l5lCB4W26-19" value="Extend" style="html=1;verticalAlign=bottom;endArrow=open;dashed=1;endSize=8;" edge="1" parent="1" source="sVUJ80jD6Z_l5lCB4W26-17" target="sVUJ80jD6Z_l5lCB4W26-8">
          <mxGeometry relative="1" as="geometry">
            <mxPoint x="240.88866949140584" y="239.99506355663107" as="sourcePoint" />
            <mxPoint x="249" y="410" as="targetPoint" />
          </mxGeometry>
        </mxCell>
        <mxCell id="sVUJ80jD6Z_l5lCB4W26-20" value="Extend" style="html=1;verticalAlign=bottom;endArrow=open;dashed=1;endSize=8;" edge="1" parent="1" source="sVUJ80jD6Z_l5lCB4W26-17" target="sVUJ80jD6Z_l5lCB4W26-6">
          <mxGeometry relative="1" as="geometry">
            <mxPoint x="244.3736191661145" y="200.11991288129775" as="sourcePoint" />
            <mxPoint x="262.2697931747608" y="119.78593071357591" as="targetPoint" />
          </mxGeometry>
        </mxCell>
        <mxCell id="sVUJ80jD6Z_l5lCB4W26-23" value="Extend" style="html=1;verticalAlign=bottom;endArrow=open;dashed=1;endSize=8;" edge="1" parent="1" source="sVUJ80jD6Z_l5lCB4W26-18" target="sVUJ80jD6Z_l5lCB4W26-14">
          <mxGeometry relative="1" as="geometry">
            <mxPoint x="397.1127361590359" y="336.40253908602426" as="sourcePoint" />
            <mxPoint x="299.974514173902" y="406.2683179375081" as="targetPoint" />
          </mxGeometry>
        </mxCell>
        <mxCell id="sVUJ80jD6Z_l5lCB4W26-25" value="" style="endArrow=block;endFill=1;html=1;edgeStyle=orthogonalEdgeStyle;align=left;verticalAlign=top;fontColor=none;" edge="1" parent="1" source="sVUJ80jD6Z_l5lCB4W26-6" target="sVUJ80jD6Z_l5lCB4W26-18">
          <mxGeometry x="-1" relative="1" as="geometry">
            <mxPoint x="260" y="410" as="sourcePoint" />
            <mxPoint x="420" y="410" as="targetPoint" />
          </mxGeometry>
        </mxCell>
        <mxCell id="sVUJ80jD6Z_l5lCB4W26-27" value="" style="endArrow=block;endFill=1;html=1;edgeStyle=orthogonalEdgeStyle;align=left;verticalAlign=top;fontColor=none;" edge="1" parent="1" source="sVUJ80jD6Z_l5lCB4W26-8" target="sVUJ80jD6Z_l5lCB4W26-18">
          <mxGeometry x="-1" relative="1" as="geometry">
            <mxPoint x="340" y="85" as="sourcePoint" />
            <mxPoint x="420" y="300" as="targetPoint" />
          </mxGeometry>
        </mxCell>
        <mxCell id="sVUJ80jD6Z_l5lCB4W26-28" value="Include" style="html=1;verticalAlign=bottom;endArrow=open;dashed=1;endSize=8;" edge="1" parent="1" source="sVUJ80jD6Z_l5lCB4W26-14" target="sVUJ80jD6Z_l5lCB4W26-12">
          <mxGeometry relative="1" as="geometry">
            <mxPoint x="311.98415055405655" y="309.5942986456398" as="sourcePoint" />
            <mxPoint x="274.1823922825189" y="400.7258853172457" as="targetPoint" />
          </mxGeometry>
        </mxCell>
        <mxCell id="sVUJ80jD6Z_l5lCB4W26-29" value="Include" style="html=1;verticalAlign=bottom;endArrow=open;dashed=1;endSize=8;" edge="1" parent="1" source="sVUJ80jD6Z_l5lCB4W26-13" target="sVUJ80jD6Z_l5lCB4W26-12">
          <mxGeometry relative="1" as="geometry">
            <mxPoint x="496.3327484417555" y="370.0087733736691" as="sourcePoint" />
            <mxPoint x="503.57214789243517" y="269.98992950590764" as="targetPoint" />
          </mxGeometry>
        </mxCell>
        <mxCell id="sVUJ80jD6Z_l5lCB4W26-30" value="Include" style="html=1;verticalAlign=bottom;endArrow=open;dashed=1;endSize=8;" edge="1" parent="1" source="sVUJ80jD6Z_l5lCB4W26-17" target="sVUJ80jD6Z_l5lCB4W26-12">
          <mxGeometry relative="1" as="geometry">
            <mxPoint x="506.3327484417555" y="380.0087733736691" as="sourcePoint" />
            <mxPoint x="513.5721478924352" y="279.98992950590764" as="targetPoint" />
          </mxGeometry>
        </mxCell>
      </root>
    </mxGraphModel>
  </diagram>
</mxfile>
